<mxfile host="app.diagrams.net" modified="2024-02-19T19:28:03.636Z" agent="Mozilla/5.0 (Windows NT 10.0; Win64; x64; rv:122.0) Gecko/20100101 Firefox/122.0" etag="KBqIRO_F-Pg0KBPqX_l_" version="23.1.5" type="device">
  <diagram name="Seite-1" id="kk1gKKuR4G4Bx_sYt_mi">
    <mxGraphModel dx="3407" dy="2222" grid="0" gridSize="10" guides="1" tooltips="1" connect="1" arrows="1" fold="1" page="0" pageScale="1" pageWidth="827" pageHeight="1169" math="0" shadow="0">
      <root>
        <mxCell id="0" />
        <mxCell id="1" parent="0" />
        <mxCell id="d1ppOq63fAV8sQG7V2ex-88" value="" style="group;fillColor=default;container=0;" vertex="1" connectable="0" parent="1">
          <mxGeometry x="970" y="250" width="466" height="456" as="geometry" />
        </mxCell>
        <mxCell id="d1ppOq63fAV8sQG7V2ex-4" value="" style="outlineConnect=0;gradientColor=none;html=1;whiteSpace=wrap;fontSize=12;fontStyle=0;strokeColor=#404547;fillColor=none;verticalAlign=top;align=center;fontColor=#879196;dashed=1;spacingTop=3;strokeWidth=4;perimeterSpacing=1;" vertex="1" parent="1">
          <mxGeometry x="-501" y="-331" width="1248" height="1197" as="geometry" />
        </mxCell>
        <mxCell id="d1ppOq63fAV8sQG7V2ex-8" value="" style="rounded=1;arcSize=10;dashed=0;fillColor=#9eeda3;gradientColor=none;strokeWidth=2;labelBackgroundColor=default;fontColor=default;perimeterSpacing=0;" vertex="1" parent="1">
          <mxGeometry x="-418" y="-265" width="848" height="822" as="geometry" />
        </mxCell>
        <mxCell id="d1ppOq63fAV8sQG7V2ex-27" value="" style="group;rounded=1;labelBackgroundColor=#0000FF;" vertex="1" connectable="0" parent="1">
          <mxGeometry x="-269" y="-170" width="576" height="389" as="geometry" />
        </mxCell>
        <mxCell id="d1ppOq63fAV8sQG7V2ex-26" value="&lt;font style=&quot;font-size: 18px;&quot;&gt;&lt;b&gt;View&lt;/b&gt;&lt;/font&gt;" style="text;html=1;align=center;verticalAlign=middle;whiteSpace=wrap;rounded=0;fontSize=16;" vertex="1" parent="d1ppOq63fAV8sQG7V2ex-27">
          <mxGeometry x="244.6917293233083" y="10.150063103716057" width="86.61654135338347" height="41.32875305450297" as="geometry" />
        </mxCell>
        <mxCell id="d1ppOq63fAV8sQG7V2ex-25" value="" style="rounded=1;arcSize=10;dashed=1;strokeColor=#000000;fillColor=#5DB4CF;gradientColor=none;dashPattern=8 4;strokeWidth=2;labelBackgroundColor=#3DCBFF;" vertex="1" parent="d1ppOq63fAV8sQG7V2ex-27">
          <mxGeometry width="576.0000000000001" height="389.00000000000006" as="geometry" />
        </mxCell>
        <mxCell id="d1ppOq63fAV8sQG7V2ex-34" value="" style="rounded=0;whiteSpace=wrap;html=1;labelBackgroundColor=#050505;fillColor=none;" vertex="1" parent="d1ppOq63fAV8sQG7V2ex-27">
          <mxGeometry x="49" y="77" width="467" height="251" as="geometry" />
        </mxCell>
        <mxCell id="d1ppOq63fAV8sQG7V2ex-36" value="&lt;font style=&quot;font-size: 19px;&quot;&gt;header&lt;/font&gt;" style="text;html=1;align=center;verticalAlign=middle;whiteSpace=wrap;rounded=0;fontSize=16;" vertex="1" parent="d1ppOq63fAV8sQG7V2ex-27">
          <mxGeometry x="312" y="91" width="60" height="30" as="geometry" />
        </mxCell>
        <mxCell id="d1ppOq63fAV8sQG7V2ex-37" value="" style="endArrow=none;html=1;rounded=0;fontSize=12;startSize=8;endSize=8;exitX=0.25;exitY=1;exitDx=0;exitDy=0;entryX=0.25;entryY=0;entryDx=0;entryDy=0;" edge="1" parent="d1ppOq63fAV8sQG7V2ex-27" source="d1ppOq63fAV8sQG7V2ex-34" target="d1ppOq63fAV8sQG7V2ex-34">
          <mxGeometry width="50" height="50" relative="1" as="geometry">
            <mxPoint x="146" y="220" as="sourcePoint" />
            <mxPoint x="165.7500000000009" y="128.00000000000023" as="targetPoint" />
          </mxGeometry>
        </mxCell>
        <mxCell id="d1ppOq63fAV8sQG7V2ex-38" value="&lt;font style=&quot;font-size: 18px;&quot;&gt;navigation bar&lt;/font&gt;" style="text;html=1;align=center;verticalAlign=middle;whiteSpace=wrap;rounded=0;fontSize=16;" vertex="1" parent="d1ppOq63fAV8sQG7V2ex-27">
          <mxGeometry x="49" y="80" width="116" height="30" as="geometry" />
        </mxCell>
        <mxCell id="d1ppOq63fAV8sQG7V2ex-39" style="edgeStyle=none;curved=1;rounded=0;orthogonalLoop=1;jettySize=auto;html=1;exitX=0.5;exitY=1;exitDx=0;exitDy=0;fontSize=12;startSize=8;endSize=8;" edge="1" parent="d1ppOq63fAV8sQG7V2ex-27" source="d1ppOq63fAV8sQG7V2ex-38" target="d1ppOq63fAV8sQG7V2ex-38">
          <mxGeometry relative="1" as="geometry" />
        </mxCell>
        <mxCell id="d1ppOq63fAV8sQG7V2ex-43" value="" style="endArrow=none;html=1;rounded=0;fontSize=12;startSize=8;endSize=8;exitX=1;exitY=0.25;exitDx=0;exitDy=0;" edge="1" parent="d1ppOq63fAV8sQG7V2ex-27" source="d1ppOq63fAV8sQG7V2ex-34">
          <mxGeometry width="50" height="50" relative="1" as="geometry">
            <mxPoint x="234" y="187" as="sourcePoint" />
            <mxPoint x="167" y="140" as="targetPoint" />
          </mxGeometry>
        </mxCell>
        <mxCell id="d1ppOq63fAV8sQG7V2ex-46" value="&lt;font style=&quot;font-size: 19px;&quot;&gt;content&lt;/font&gt;" style="text;html=1;align=center;verticalAlign=middle;whiteSpace=wrap;rounded=0;" vertex="1" parent="d1ppOq63fAV8sQG7V2ex-27">
          <mxGeometry x="312" y="151" width="60" height="30" as="geometry" />
        </mxCell>
        <mxCell id="d1ppOq63fAV8sQG7V2ex-12" value="" style="shape=image;html=1;verticalAlign=top;verticalLabelPosition=bottom;labelBackgroundColor=none;imageAspect=0;aspect=fixed;image=https://cdn3.iconfinder.com/data/icons/brands-pack/240/android-128.png;imageBackground=none;fontColor=#E6E6E6;" vertex="1" parent="1">
          <mxGeometry x="-344.997926773917" y="-289.9984084001105" width="81.46252899427432" height="81.46252899427432" as="geometry" />
        </mxCell>
        <mxCell id="d1ppOq63fAV8sQG7V2ex-5" value="&lt;font style=&quot;font-size: 24px;&quot;&gt;user client&lt;/font&gt;" style="text;html=1;align=center;verticalAlign=middle;whiteSpace=wrap;rounded=0;fontSize=16;fillColor=default;" vertex="1" parent="1">
          <mxGeometry x="-462.53" y="-350" width="136.53" height="37.91" as="geometry" />
        </mxCell>
        <mxCell id="d1ppOq63fAV8sQG7V2ex-45" value="&lt;font style=&quot;font-size: 25px;&quot;&gt;business logic&lt;/font&gt;" style="text;html=1;align=center;verticalAlign=middle;whiteSpace=wrap;rounded=0;" vertex="1" parent="1">
          <mxGeometry x="-263.54" y="-255.99999999999997" width="164" height="30" as="geometry" />
        </mxCell>
        <mxCell id="d1ppOq63fAV8sQG7V2ex-22" value="" style="endArrow=classic;html=1;rounded=0;fontSize=19;startSize=8;endSize=8;entryX=0.5;entryY=0;entryDx=0;entryDy=0;strokeWidth=4;" edge="1" parent="1" target="d1ppOq63fAV8sQG7V2ex-25">
          <mxGeometry width="50" height="50" relative="1" as="geometry">
            <mxPoint x="19" y="-461" as="sourcePoint" />
            <mxPoint x="-17" y="-382" as="targetPoint" />
          </mxGeometry>
        </mxCell>
        <mxCell id="d1ppOq63fAV8sQG7V2ex-31" value="&lt;font style=&quot;font-size: 23px;&quot;&gt;user interaction&lt;/font&gt;" style="edgeLabel;html=1;align=center;verticalAlign=middle;resizable=0;points=[];fontSize=12;" vertex="1" connectable="0" parent="d1ppOq63fAV8sQG7V2ex-22">
          <mxGeometry x="-0.4726" y="1" relative="1" as="geometry">
            <mxPoint as="offset" />
          </mxGeometry>
        </mxCell>
        <mxCell id="d1ppOq63fAV8sQG7V2ex-50" value="" style="group" vertex="1" connectable="0" parent="1">
          <mxGeometry x="-269" y="313" width="530" height="222" as="geometry" />
        </mxCell>
        <mxCell id="d1ppOq63fAV8sQG7V2ex-47" value="" style="rounded=1;whiteSpace=wrap;html=1;fillColor=#F19C99;dashed=1;dashPattern=12 12;strokeWidth=2;" vertex="1" parent="d1ppOq63fAV8sQG7V2ex-50">
          <mxGeometry width="530" height="222" as="geometry" />
        </mxCell>
        <mxCell id="d1ppOq63fAV8sQG7V2ex-48" value="&lt;font size=&quot;1&quot;&gt;&lt;b style=&quot;font-size: 19px;&quot;&gt;controller&lt;/b&gt;&lt;/font&gt;" style="text;html=1;align=center;verticalAlign=middle;whiteSpace=wrap;rounded=0;" vertex="1" parent="d1ppOq63fAV8sQG7V2ex-50">
          <mxGeometry x="235" y="11" width="60" height="30" as="geometry" />
        </mxCell>
        <mxCell id="d1ppOq63fAV8sQG7V2ex-51" value="navigation" style="rounded=1;whiteSpace=wrap;html=1;fillColor=none;strokeWidth=2;fontSize=18;" vertex="1" parent="d1ppOq63fAV8sQG7V2ex-50">
          <mxGeometry x="19.5" y="44" width="235" height="76" as="geometry" />
        </mxCell>
        <mxCell id="d1ppOq63fAV8sQG7V2ex-52" value="data management" style="rounded=1;whiteSpace=wrap;html=1;fillColor=none;strokeWidth=2;fontSize=18;" vertex="1" parent="d1ppOq63fAV8sQG7V2ex-50">
          <mxGeometry x="276.5" y="44" width="235" height="76" as="geometry" />
        </mxCell>
        <mxCell id="d1ppOq63fAV8sQG7V2ex-53" value="calculation" style="rounded=1;whiteSpace=wrap;html=1;fillColor=none;strokeWidth=2;fontSize=18;" vertex="1" parent="d1ppOq63fAV8sQG7V2ex-50">
          <mxGeometry x="147.5" y="131" width="235" height="76" as="geometry" />
        </mxCell>
        <mxCell id="d1ppOq63fAV8sQG7V2ex-55" value="" style="endArrow=classic;html=1;rounded=0;exitX=0;exitY=0.75;exitDx=0;exitDy=0;entryX=0;entryY=0.25;entryDx=0;entryDy=0;fontSize=17;strokeWidth=3;" edge="1" parent="1" source="d1ppOq63fAV8sQG7V2ex-47" target="d1ppOq63fAV8sQG7V2ex-25">
          <mxGeometry width="50" height="50" relative="1" as="geometry">
            <mxPoint x="-353" y="68" as="sourcePoint" />
            <mxPoint x="-303" y="18" as="targetPoint" />
            <Array as="points">
              <mxPoint x="-373" y="480" />
              <mxPoint x="-373" y="-73" />
            </Array>
          </mxGeometry>
        </mxCell>
        <mxCell id="d1ppOq63fAV8sQG7V2ex-66" value="&lt;font size=&quot;1&quot;&gt;&lt;b style=&quot;font-size: 16px;&quot;&gt;refresh content&lt;/b&gt;&lt;/font&gt;" style="edgeLabel;html=1;align=center;verticalAlign=middle;resizable=0;points=[];labelBackgroundColor=none;" vertex="1" connectable="0" parent="d1ppOq63fAV8sQG7V2ex-55">
          <mxGeometry x="0.846" relative="1" as="geometry">
            <mxPoint x="-14" y="-12" as="offset" />
          </mxGeometry>
        </mxCell>
        <mxCell id="d1ppOq63fAV8sQG7V2ex-56" value="" style="endArrow=classic;html=1;rounded=0;exitX=-0.005;exitY=0.724;exitDx=0;exitDy=0;entryX=0;entryY=0.45;entryDx=0;entryDy=0;entryPerimeter=0;strokeWidth=3;exitPerimeter=0;" edge="1" parent="1" source="d1ppOq63fAV8sQG7V2ex-25" target="d1ppOq63fAV8sQG7V2ex-47">
          <mxGeometry width="50" height="50" relative="1" as="geometry">
            <mxPoint x="-345" y="289" as="sourcePoint" />
            <mxPoint x="-295" y="239" as="targetPoint" />
            <Array as="points">
              <mxPoint x="-343" y="112" />
              <mxPoint x="-343" y="413" />
            </Array>
          </mxGeometry>
        </mxCell>
        <mxCell id="d1ppOq63fAV8sQG7V2ex-67" value="&lt;font style=&quot;font-size: 19px;&quot;&gt;user action&lt;/font&gt;" style="text;html=1;align=center;verticalAlign=middle;whiteSpace=wrap;rounded=0;" vertex="1" parent="1">
          <mxGeometry x="-372" y="83" width="103" height="30" as="geometry" />
        </mxCell>
        <mxCell id="d1ppOq63fAV8sQG7V2ex-68" value="" style="sketch=0;outlineConnect=0;fontColor=#232F3E;gradientColor=none;fillColor=#A38B41;strokeColor=none;dashed=0;verticalLabelPosition=bottom;verticalAlign=top;align=center;html=1;fontSize=12;fontStyle=0;aspect=fixed;pointerEvents=1;shape=mxgraph.aws4.file_system;" vertex="1" parent="1">
          <mxGeometry x="-68.99999999999999" y="664" width="148.52" height="139" as="geometry" />
        </mxCell>
        <mxCell id="d1ppOq63fAV8sQG7V2ex-69" value="" style="endArrow=classic;html=1;rounded=0;exitX=0.515;exitY=0.993;exitDx=0;exitDy=0;strokeWidth=4;exitPerimeter=0;" edge="1" parent="1" source="d1ppOq63fAV8sQG7V2ex-47" target="d1ppOq63fAV8sQG7V2ex-68">
          <mxGeometry width="50" height="50" relative="1" as="geometry">
            <mxPoint x="-162" y="693" as="sourcePoint" />
            <mxPoint x="-112" y="643" as="targetPoint" />
          </mxGeometry>
        </mxCell>
        <mxCell id="d1ppOq63fAV8sQG7V2ex-71" value="" style="edgeStyle=segmentEdgeStyle;endArrow=classic;html=1;curved=0;rounded=0;endSize=8;startSize=8;entryX=0.75;entryY=1;entryDx=0;entryDy=0;strokeWidth=4;" edge="1" parent="1" source="d1ppOq63fAV8sQG7V2ex-68" target="d1ppOq63fAV8sQG7V2ex-47">
          <mxGeometry width="50" height="50" relative="1" as="geometry">
            <mxPoint x="138" y="684" as="sourcePoint" />
            <mxPoint x="188" y="634" as="targetPoint" />
          </mxGeometry>
        </mxCell>
        <mxCell id="d1ppOq63fAV8sQG7V2ex-72" value="&lt;font style=&quot;font-size: 22px;&quot;&gt;exchange rates&lt;br&gt;&lt;/font&gt;" style="text;html=1;align=center;verticalAlign=middle;whiteSpace=wrap;rounded=0;strokeWidth=2;fillColor=default;" vertex="1" parent="1">
          <mxGeometry x="-5" y="590" width="157" height="45" as="geometry" />
        </mxCell>
        <mxCell id="d1ppOq63fAV8sQG7V2ex-73" value="" style="outlineConnect=0;dashed=0;verticalLabelPosition=bottom;verticalAlign=top;align=center;html=1;shape=mxgraph.aws3.internet_gateway;fillColor=#F58534;gradientColor=none;" vertex="1" parent="1">
          <mxGeometry x="643" y="358" width="69" height="72" as="geometry" />
        </mxCell>
        <mxCell id="d1ppOq63fAV8sQG7V2ex-74" value="" style="endArrow=classic;html=1;rounded=0;entryX=0.145;entryY=0.145;entryDx=0;entryDy=0;entryPerimeter=0;exitX=1;exitY=0.25;exitDx=0;exitDy=0;strokeWidth=3;" edge="1" parent="1" source="d1ppOq63fAV8sQG7V2ex-47" target="d1ppOq63fAV8sQG7V2ex-73">
          <mxGeometry width="50" height="50" relative="1" as="geometry">
            <mxPoint x="349" y="451" as="sourcePoint" />
            <mxPoint x="399" y="401" as="targetPoint" />
          </mxGeometry>
        </mxCell>
        <mxCell id="d1ppOq63fAV8sQG7V2ex-75" value="" style="endArrow=classic;html=1;rounded=0;exitX=0;exitY=0.5;exitDx=0;exitDy=0;exitPerimeter=0;entryX=1.001;entryY=0.364;entryDx=0;entryDy=0;entryPerimeter=0;strokeWidth=3;" edge="1" parent="1" source="d1ppOq63fAV8sQG7V2ex-73" target="d1ppOq63fAV8sQG7V2ex-47">
          <mxGeometry width="50" height="50" relative="1" as="geometry">
            <mxPoint x="552" y="575" as="sourcePoint" />
            <mxPoint x="602" y="525" as="targetPoint" />
          </mxGeometry>
        </mxCell>
        <mxCell id="d1ppOq63fAV8sQG7V2ex-76" value="&lt;font style=&quot;font-size: 17px;&quot;&gt;http-request&lt;/font&gt;" style="text;html=1;align=center;verticalAlign=middle;whiteSpace=wrap;rounded=0;" vertex="1" parent="1">
          <mxGeometry x="813" y="339" width="106" height="30" as="geometry" />
        </mxCell>
        <mxCell id="d1ppOq63fAV8sQG7V2ex-77" value="&lt;font style=&quot;font-size: 17px;&quot;&gt;currency data&lt;/font&gt;" style="text;html=1;align=center;verticalAlign=middle;whiteSpace=wrap;rounded=0;" vertex="1" parent="1">
          <mxGeometry x="501.5" y="400" width="71" height="30" as="geometry" />
        </mxCell>
        <mxCell id="d1ppOq63fAV8sQG7V2ex-81" value="" style="endArrow=classic;html=1;rounded=0;exitX=0.855;exitY=0.145;exitDx=0;exitDy=0;exitPerimeter=0;strokeWidth=3;entryX=0.005;entryY=0.407;entryDx=0;entryDy=0;entryPerimeter=0;" edge="1" parent="1" source="d1ppOq63fAV8sQG7V2ex-73" target="d1ppOq63fAV8sQG7V2ex-87">
          <mxGeometry width="50" height="50" relative="1" as="geometry">
            <mxPoint x="829" y="523" as="sourcePoint" />
            <mxPoint x="1011" y="365" as="targetPoint" />
          </mxGeometry>
        </mxCell>
        <mxCell id="d1ppOq63fAV8sQG7V2ex-82" value="" style="endArrow=classic;html=1;rounded=0;entryX=1;entryY=0.5;entryDx=0;entryDy=0;entryPerimeter=0;exitX=0.003;exitY=0.629;exitDx=0;exitDy=0;exitPerimeter=0;strokeWidth=3;" edge="1" parent="1" source="d1ppOq63fAV8sQG7V2ex-87" target="d1ppOq63fAV8sQG7V2ex-73">
          <mxGeometry width="50" height="50" relative="1" as="geometry">
            <mxPoint x="926" y="431" as="sourcePoint" />
            <mxPoint x="879" y="426" as="targetPoint" />
          </mxGeometry>
        </mxCell>
        <mxCell id="d1ppOq63fAV8sQG7V2ex-84" value="&lt;font style=&quot;font-size: 17px;&quot;&gt;http-request&lt;/font&gt;" style="text;html=1;align=center;verticalAlign=middle;whiteSpace=wrap;rounded=0;" vertex="1" parent="1">
          <mxGeometry x="484" y="339" width="106" height="30" as="geometry" />
        </mxCell>
        <mxCell id="d1ppOq63fAV8sQG7V2ex-85" value="&lt;font style=&quot;font-size: 17px;&quot;&gt;currency data&lt;/font&gt;" style="text;html=1;align=center;verticalAlign=middle;whiteSpace=wrap;rounded=0;" vertex="1" parent="1">
          <mxGeometry x="830.5" y="405" width="71" height="30" as="geometry" />
        </mxCell>
        <mxCell id="d1ppOq63fAV8sQG7V2ex-86" value="&lt;font style=&quot;font-size: 14px;&quot;&gt;&lt;b&gt;internet&lt;/b&gt;&lt;/font&gt;" style="text;html=1;align=center;verticalAlign=middle;whiteSpace=wrap;rounded=0;" vertex="1" parent="1">
          <mxGeometry x="647.5" y="433" width="60" height="30" as="geometry" />
        </mxCell>
        <mxCell id="d1ppOq63fAV8sQG7V2ex-93" value="&lt;font style=&quot;font-size: 17px;&quot;&gt;&lt;b&gt;hard drive&lt;/b&gt;&lt;/font&gt;" style="text;html=1;align=center;verticalAlign=middle;whiteSpace=wrap;rounded=0;" vertex="1" parent="1">
          <mxGeometry x="-38.5" y="806" width="115" height="30" as="geometry" />
        </mxCell>
        <mxCell id="d1ppOq63fAV8sQG7V2ex-78" value="" style="rounded=0;whiteSpace=wrap;html=1;dashed=1;fillColor=#FFCC99;strokeColor=#36393d;" vertex="1" parent="1">
          <mxGeometry x="970" y="268" width="318" height="376" as="geometry" />
        </mxCell>
        <mxCell id="d1ppOq63fAV8sQG7V2ex-79" value="&lt;font style=&quot;font-size: 19px;&quot;&gt;&lt;b&gt;server&lt;/b&gt;&lt;/font&gt;" style="text;html=1;align=center;verticalAlign=middle;whiteSpace=wrap;rounded=0;fillColor=none;" vertex="1" parent="1">
          <mxGeometry x="984.8431462509886" y="260" width="110.99794661190963" height="37" as="geometry" />
        </mxCell>
        <mxCell id="d1ppOq63fAV8sQG7V2ex-94" value="" style="outlineConnect=0;fontColor=#232F3E;gradientColor=none;fillColor=#000000;strokeColor=none;dashed=0;verticalLabelPosition=bottom;verticalAlign=top;align=center;html=1;fontSize=12;fontStyle=0;aspect=fixed;pointerEvents=1;shape=mxgraph.aws4.file_system;perimeterSpacing=0;shadow=0;" vertex="1" parent="1">
          <mxGeometry x="1037.370915558592" y="545" width="68.37257564674297" height="63.99495007630583" as="geometry" />
        </mxCell>
        <mxCell id="d1ppOq63fAV8sQG7V2ex-98" value="" style="endArrow=classic;startArrow=classic;html=1;rounded=0;entryX=0.25;entryY=1;entryDx=0;entryDy=0;strokeWidth=2;" edge="1" parent="1" source="d1ppOq63fAV8sQG7V2ex-94" target="d1ppOq63fAV8sQG7V2ex-87">
          <mxGeometry width="50" height="50" relative="1" as="geometry">
            <mxPoint x="1118.3940871334628" y="534" as="sourcePoint" />
            <mxPoint x="1164.76723936267" y="484" as="targetPoint" />
          </mxGeometry>
        </mxCell>
        <mxCell id="d1ppOq63fAV8sQG7V2ex-99" value="file systemwith csv-data-files" style="text;html=1;align=center;verticalAlign=middle;whiteSpace=wrap;rounded=0;fillColor=#FFCC99;" vertex="1" parent="1">
          <mxGeometry x="1028.04" y="475" width="87.04" height="32" as="geometry" />
        </mxCell>
        <mxCell id="d1ppOq63fAV8sQG7V2ex-87" value="" style="rounded=1;whiteSpace=wrap;html=1;fillColor=#F19C99;dashed=1;dashPattern=12 12;strokeWidth=2;" vertex="1" parent="1">
          <mxGeometry x="1004.3161326496132" y="324" width="266.1818937956489" height="108" as="geometry" />
        </mxCell>
        <mxCell id="d1ppOq63fAV8sQG7V2ex-89" value="&lt;font style=&quot;font-size: 16px;&quot;&gt;controller&lt;/font&gt;" style="text;html=1;align=center;verticalAlign=middle;whiteSpace=wrap;rounded=0;" vertex="1" parent="1">
          <mxGeometry x="1109.5831882099133" y="329" width="55.647782675048546" height="30" as="geometry" />
        </mxCell>
        <mxCell id="d1ppOq63fAV8sQG7V2ex-90" value="" style="rounded=1;whiteSpace=wrap;html=1;fillColor=none;" vertex="1" parent="1">
          <mxGeometry x="1010.8083739617023" y="362" width="121.49765884052266" height="51" as="geometry" />
        </mxCell>
        <mxCell id="d1ppOq63fAV8sQG7V2ex-91" value="&lt;font style=&quot;font-size: 15px;&quot;&gt;data management&lt;/font&gt;" style="rounded=1;whiteSpace=wrap;html=1;fillColor=none;" vertex="1" parent="1">
          <mxGeometry x="1140.8572420732908" y="362" width="124.28004797427508" height="51" as="geometry" />
        </mxCell>
        <mxCell id="d1ppOq63fAV8sQG7V2ex-92" value="&lt;font style=&quot;font-size: 15px;&quot;&gt;run bash scripts&lt;/font&gt;" style="text;html=1;align=center;verticalAlign=middle;whiteSpace=wrap;rounded=0;" vertex="1" parent="1">
          <mxGeometry x="1020.0830044075436" y="372.5" width="102.94839794883981" height="30" as="geometry" />
        </mxCell>
      </root>
    </mxGraphModel>
  </diagram>
</mxfile>
